<?xml version="1.0" encoding="UTF-8"?>
<svg id="Capa_1" data-name="Capa 1" xmlns="http://www.w3.org/2000/svg" viewBox="0 0 128 128">
  <defs>
    <style>
      .cls-1 {
        fill: #7d5fff;
      }
    </style>
  </defs>
  <path class="cls-1" d="M86.61,57.32c-4.11,0-7.73,3.07-8.45,8.73h15.69c0-5.43-2.41-8.73-7.24-8.73Z"/>
  <path class="cls-1" d="M47.17,46.58h-.29c-1.29,5.2-2.67,10.52-4.17,15.49l-1.65,5.73h12l-1.64-5.73c-1.49-4.97-2.87-10.33-4.25-15.49Z"/>
  <path class="cls-1" d="M105.33,1.6H22.67C10.13,1.6,0,11.73,0,24.27v79.46c0,12.53,10.13,22.67,22.67,22.67h82.67c12.53,0,22.67-10.13,22.67-22.67V24.27c0-12.53-10.13-22.67-22.67-22.67ZM58.57,87.06l-3.64-12.73h-15.76l-3.67,12.73h-8.5l15.31-46.97h9.77l15.31,46.97h-8.82ZM100.64,71.69h-22.39c.69,6.26,4.71,9.82,10.4,9.82,3.02,0,5.6-.95,8.19-2.56l2.82,5.14c-3.36,2.27-7.61,3.82-12.09,3.82-9.74,0-17.38-6.84-17.38-18.47s7.96-18.53,16.26-18.53c9.54,0,14.57,6.9,14.57,16.75,0,1.58-.17,3.16-.36,4.02Z"/>
</svg>