<?xml version="1.0" encoding="UTF-8"?>
<svg id="Capa_1" data-name="Capa 1" xmlns="http://www.w3.org/2000/svg" viewBox="0 0 128 128">
  <defs>
    <style>
      .cls-1 {
        fill: #7d5fff;
      }
    </style>
  </defs>
  <path class="cls-1" d="M105.33,1.6H22.67C10.13,1.6,0,11.73,0,24.27v79.46c0,12.53,10.13,22.67,22.67,22.67h82.67c12.53,0,22.67-10.13,22.67-22.67V24.27c0-12.53-10.13-22.67-22.67-22.67ZM34.22,109.42c-6.21,0-11.25-5.04-11.25-11.25s5.04-11.25,11.25-11.25,11.25,5.04,11.25,11.25-5.04,11.25-11.25,11.25ZM75.29,98.03c0,.76-.07,1.52-.22,2.27-1.24,6.1-7.18,10.04-13.28,8.81-5.29-1.06-8.9-6.04-8.9-14.24v-30.22c-.15-6.25,4.7-11.49,10.94-11.83.06,0,.13,0,.19,0,6.24.01,11.28,5.07,11.27,11.31v33.91ZM105.03,98.05c.03,6.24-5,11.32-11.23,11.35-.46,0-.93-.02-1.39-.08-5.78-.86-10.02-5.89-9.88-11.73V30.39c-.14-5.85,4.11-10.89,9.9-11.73,6.19-.72,11.8,3.71,12.53,9.9.05.46.08.91.07,1.37v68.12Z"/>
</svg>