<?xml version="1.0" encoding="UTF-8"?>
<svg id="Capa_1" data-name="Capa 1" xmlns="http://www.w3.org/2000/svg" viewBox="0 0 128 128">
  <defs>
    <style>
      .cls-1 {
        fill: #7d5fff;
      }
    </style>
  </defs>
  <path class="cls-1" d="M105.33,1.6H22.67C10.13,1.6,0,11.73,0,24.27v79.46c0,12.53,10.13,22.67,22.67,22.67h82.67c12.53,0,22.67-10.13,22.67-22.67V24.27c0-12.53-10.13-22.67-22.67-22.67ZM81.44,97.15c-2.09,3.86-5.13,5.79-7.86,7.52-3.44,2.18-6.39,4.05-6.39,9.09,0,1.67.38,3.26,1.07,4.67-4.59-1.91-7.82-6.43-7.82-11.71,0-.1,0-.21,0-.31,0-3.48.01-7.77-4.9-7.77-2.87,0-5.19,2.32-5.19,5.19-5.52-5.52-5.04-13.46-5.04-13.46,0-1.62.16-4.15.9-6.36,2.05,3.86,9.77,6.73,18.99,6.73,7.51,0,14.03-1.9,17.29-4.7.43,1.36.67,2.82.67,4.33,0,2.45-.62,4.76-1.71,6.78ZM78.48,74.93l-12.9-43.59c-.21-.71-.87-1.2-1.61-1.2s-1.4.49-1.61,1.21l-12.74,43.56c-8.44,1.47-16.43,4.22-23.79,8.03L45.74,17.86c.91-2.97,1.36-4.46,2.25-5.56.78-.97,1.81-1.73,2.97-2.19,1.31-.53,2.87-.53,5.98-.53h14.22c3.11,0,4.67,0,5.99.53,1.16.47,2.18,1.22,2.97,2.2.89,1.1,1.34,2.59,2.25,5.57l19.81,65.07c-7.32-3.8-15.29-6.54-23.68-8.02Z"/>
</svg>