<?xml version="1.0" encoding="UTF-8"?>
<svg id="Capa_1" data-name="Capa 1" xmlns="http://www.w3.org/2000/svg" viewBox="0 0 128 128">
  <defs>
    <style>
      .cls-1 {
        fill: #7d5fff;
      }
    </style>
  </defs>
  <path class="cls-1" d="M98.49,61.6c-1.19-2.16-2.83-4.11-4.85-5.75-3.97-3.22-9.02-4.96-14.31-4.95-5.28,0-10.33,1.76-14.3,4.99-2.02,1.65-3.66,3.61-4.85,5.77-1.21,2.2-1.97,4.63-2.19,7.18-.23,2.61.12,5.2,1,7.63.9,2.48,2.37,4.81,4.36,6.83,4.08,4.15,9.79,6.49,15.99,6.48,6.18-.01,11.9-2.37,15.98-6.53,1.99-2.03,3.45-4.36,4.36-6.85.89-2.44,1.23-5.02,1.01-7.63-.22-2.56-.98-4.98-2.2-7.18ZM89.63,78.05c-2.48,2.42-6.02,3.94-9.97,3.94s-7.5-1.52-9.98-3.94c-2.44-2.38-3.82-5.59-3.63-9.04.19-3.36,1.84-6.33,4.32-8.43,2.44-2.06,5.72-3.32,9.29-3.32s6.85,1.26,9.29,3.32c2.48,2.1,4.13,5.06,4.32,8.42.19,3.46-1.2,6.67-3.64,9.04Z"/>
  <path class="cls-1" d="M105.33,1.6H22.67C10.13,1.6,0,11.73,0,24.27v79.46c0,12.53,10.13,22.67,22.67,22.67h82.67c12.53,0,22.67-10.13,22.67-22.67V24.27c0-12.53-10.13-22.67-22.67-22.67ZM114.43,75.2c-.17,2.18-.59,4.35-1.26,6.49-1.33,4.24-3.58,8.16-6.7,11.63-3.21,3.55-7.16,6.42-11.72,8.46-4.8,2.14-10,3.25-15.4,3.25-5.4,0-10.61-1.07-15.41-3.2-4.57-2.02-8.52-4.88-11.73-8.43-3.13-3.45-5.38-7.37-6.7-11.61-.63-2-1.05-4.56-1.07-5.88-.02-1.31.27-3.5.27-3.5l-19.81,16.21c-3.46,2.79-8.11,2.79-10.3-.02-2.16-2.76-1.05-7.12,2.37-9.74.04-.03.09-.07.14-.1l36.29-27.86-20.34.04h0c-3.45-.02-5.7-2.35-5.05-5.15.63-2.75,3.82-4.93,7.14-4.93h.05l40.13-.04-13.16-10.71h0c-2.05-1.69-1.79-4.35.52-5.97,2.28-1.59,5.76-1.6,7.83,0,.03.02.05.04.08.06l31.56,24.24h0c3.13,2.43,5.76,5.31,7.8,8.6,2.23,3.58,3.68,7.51,4.28,11.7.3,2.15.37,4.3.21,6.45Z"/>
</svg>