<?xml version="1.0" encoding="UTF-8"?>
<svg id="Capa_1" data-name="Capa 1" xmlns="http://www.w3.org/2000/svg" viewBox="0 0 128 128">
  <defs>
    <style>
      .cls-1 {
        fill: #7d5fff;
      }
    </style>
  </defs>
  <path class="cls-1" d="M77.59,45.76c0-7.4-5.2-11.48-14.36-11.48h-16.84v23.79h14.18c10.97,0,17.01-4.42,17.01-12.31Z"/>
  <path class="cls-1" d="M63.12,67.5h-16.73v26.22h17.46c11.42,0,17.46-4.58,17.46-13.19s-6.22-13.03-18.2-13.03Z"/>
  <path class="cls-1" d="M105.33,1.6H22.67C10.13,1.6,0,11.73,0,24.27v79.46c0,12.53,10.13,22.67,22.67,22.67h82.67c12.53,0,22.67-10.13,22.67-22.67V24.27c0-12.53-10.13-22.67-22.67-22.67ZM66.46,103.82h-29.54c-1.76,0-3.19-1.43-3.19-3.19V27.36c0-1.76,1.43-3.19,3.19-3.19h29.37c14.47,0,23.96,7.84,23.96,19.87,0,8.45-6.39,16.01-14.53,17.33v.44c11.08,1.22,18.54,8.89,18.54,19.49,0,14.02-10.46,22.52-27.81,22.52Z"/>
</svg>