<?xml version="1.0" encoding="UTF-8"?>
<svg id="Capa_1" data-name="Capa 1" xmlns="http://www.w3.org/2000/svg" viewBox="0 0 128 128">
  <defs>
    <style>
      .cls-1 {
        fill: #7d5fff;
      }
    </style>
  </defs>
  <path class="cls-1" d="M105.33,1.6H22.67C10.13,1.6,0,11.73,0,24.27v79.46c0,12.53,10.13,22.67,22.67,22.67h82.67c12.53,0,22.67-10.13,22.67-22.67V24.27c0-12.53-10.13-22.67-22.67-22.67ZM100.67,36.03l-36.34,15.54-.09.04h35.14l-4.02,46.22-30.98,9.04-.06-.02v.02l-31.15-9.21-2.01-23.28h15.46l1,12.06,16.55,4.18.14-.04v.02l17.14-4.83,1.17-19.43-18.31-.06h0s-34.16-.11-34.16-.11l-1.17-14.57,35.34-14.72,2.06-.86H27.66l-1.84-14.9h76.36l-1.51,14.9Z"/>
</svg>