<?xml version="1.0" encoding="UTF-8"?>
<svg id="Capa_1" data-name="Capa 1" xmlns="http://www.w3.org/2000/svg" viewBox="0 0 128 128">
  <defs>
    <style>
      .cls-1 {
        fill: #7d5fff;
      }
    </style>
  </defs>
  <path class="cls-1" d="M40.52,48.38h-3.41v31.24h3.41c8.82,0,13.89-5.02,13.89-15.8s-5.07-15.44-13.89-15.44Z"/>
  <path class="cls-1" d="M105.33,1.6H22.67C10.13,1.6,0,11.73,0,24.27v79.46c0,12.53,10.13,22.67,22.67,22.67h82.67c12.53,0,22.67-10.13,22.67-22.67V24.27c0-12.53-10.13-22.67-22.67-22.67ZM41.43,85.92h-12.09v-43.85h11.69c13.44,0,21.37,7.24,21.37,21.75s-7.94,22.1-20.97,22.1ZM98.67,85.92h-7.72v-19.66c0-5.42-1.55-7.46-5.12-7.46-2.9,0-4.8,1.42-7.51,4.11v23.01h-7.72v-32.93h6.33l.59,4.45h.21c2.95-2.87,6.3-5.26,10.81-5.26,7.05,0,10.14,4.78,10.14,13.09v20.65Z"/>
</svg>