<?xml version="1.0" encoding="UTF-8"?>
<svg id="Capa_1" data-name="Capa 1" xmlns="http://www.w3.org/2000/svg" viewBox="0 0 128 128">
  <defs>
    <style>
      .cls-1 {
        fill: none;
        stroke: #7d5fff;
        stroke-miterlimit: 10;
        stroke-width: 4px;
      }
    </style>
  </defs>
  <g id="g2530">
    <g id="g2536">
      <path id="path2538" class="cls-1" d="M64,31.49l-3.57-3.57c-11.47-11.47-30.07-11.47-41.54,0-11.47,11.47-11.47,30.07,0,41.54l37.06,37.06c2.87,2.87,7.52,2.87,10.39,0,2.87-2.87,2.87-7.52,0-10.39l3.46,3.46c2.87,2.87,7.52,2.87,10.39,0,2.87-2.87,2.87-7.52,0-10.39l3.46,3.46c2.87,2.87,7.52,2.87,10.39,0,2.87-2.87,2.87-7.52,0-10.39l3.46,3.46c2.87,2.87,7.52,2.87,10.39,0,2.87-2.87,2.87-7.52,0-10.39l-33.49-33.49-11.31,11.31c-2.87,2.87-7.52,2.87-10.39,0-2.87-2.87-2.87-7.52,0-10.39l14.88-14.88c11.47-11.47,30.07-11.47,41.54,0,11.47,11.47,11.47,30.07,0,41.54l-3.57,3.57"/>
    </g>
    <g id="g2540">
      <path id="path2542" class="cls-1" d="M66.33,96.14l-15.62-15.62"/>
    </g>
    <g id="g2544">
      <path id="path2546" class="cls-1" d="M80.18,89.22l-19.09-19.09"/>
    </g>
    <g id="g2548">
      <path id="path2550" class="cls-1" d="M94.03,82.29l-22.55-22.55"/>
    </g>
    <g id="g2552">
      <path id="path2554" class="cls-1" d="M10.32,52.33H1.33"/>
    </g>
    <g id="g2556">
      <path id="path2558" class="cls-1" d="M1.33,19.32h38.19"/>
    </g>
    <g id="g2560">
      <path id="path2562" class="cls-1" d="M117.68,52.33h8.98"/>
    </g>
    <g id="g2564">
      <path id="path2566" class="cls-1" d="M126.67,19.32h-38.19"/>
    </g>
  </g>
</svg>