<?xml version="1.0" encoding="UTF-8"?>
<svg id="Capa_1" data-name="Capa 1" xmlns="http://www.w3.org/2000/svg" viewBox="0 0 128 128">
  <defs>
    <style>
      .cls-1 {
        fill: #7d5fff;
      }
    </style>
  </defs>
  <path class="cls-1" d="M64,64c0-8.69,7.06-15.75,15.75-15.75h-15.75v15.75Z"/>
  <path class="cls-1" d="M105.33,1.6H22.67C10.13,1.6,0,11.73,0,24.27v79.46c0,12.53,10.13,22.67,22.67,22.67h82.67c12.53,0,22.67-10.13,22.67-22.67V24.27c0-12.53-10.13-22.67-22.67-22.67ZM95.5,64c0,8.69-7.06,15.75-15.75,15.75s-15.75-7.06-15.75-15.75v31.5c0,8.69-7.06,15.75-15.75,15.75s-15.75-7.06-15.75-15.75,7.06-15.75,15.75-15.75c-8.69,0-15.75-7.06-15.75-15.75s7.06-15.75,15.75-15.75c-8.69,0-15.75-7.06-15.75-15.75s7.06-15.75,15.75-15.75h31.5c8.69,0,15.75,7.06,15.75,15.75s-7.06,15.75-15.75,15.75c8.69,0,15.75,7.06,15.75,15.75Z"/>
</svg>