<?xml version="1.0" encoding="UTF-8"?>
<svg id="Capa_1" data-name="Capa 1" xmlns="http://www.w3.org/2000/svg" viewBox="0 0 128 128">
  <defs>
    <style>
      .cls-1 {
        fill: #7d5fff;
      }
    </style>
  </defs>
  <path class="cls-1" d="M105.33,1.6H22.67C10.13,1.6,0,11.73,0,24.27v79.46c0,12.53,10.13,22.67,22.67,22.67h82.67c12.53,0,22.67-10.13,22.67-22.67V24.27c0-12.53-10.13-22.67-22.67-22.67ZM112.27,68.67l-43.6,43.6c-2.53,2.52-6.62,2.52-9.14,0L15.73,68.47c-2.52-2.52-2.52-6.62,0-9.14l30.04-30.04,11.37,11.38c-1.17,2.79-.62,6.13,1.66,8.41.74.75,1.6,1.3,2.52,1.68v27.55c-.92.38-1.77.94-2.52,1.68-3,3-3,7.87,0,10.87,3,3,7.87,3,10.87,0,3-3.01,3-7.87,0-10.87-.61-.61-1.3-1.09-2.03-1.45v-27.29s10.37,10.37,10.37,10.37c-1.14,2.78-.59,6.1,1.67,8.36,3.01,3,7.87,3,10.88,0,3-3,3-7.87,0-10.87-2.15-2.15-5.25-2.75-7.94-1.83l-11.12-11.12c.93-2.69.32-5.79-1.82-7.94-2.14-2.14-5.21-2.75-7.89-1.84l-11.54-11.54,9.1-9.1c2.52-2.52,6.62-2.52,9.14,0l43.81,43.8c2.52,2.52,2.52,6.62,0,9.14Z"/>
</svg>