<?xml version="1.0" encoding="UTF-8"?>
<svg id="Capa_1" data-name="Capa 1" xmlns="http://www.w3.org/2000/svg" viewBox="0 0 128 128">
  <defs>
    <style>
      .cls-1 {
        fill: #7d5fff;
      }
    </style>
  </defs>
  <path class="cls-1" d="M105.34,1.6H22.67C10.13,1.6,0,11.73,0,24.27v79.46c0,12.53,10.13,22.67,22.67,22.67h82.67c12.53,0,22.67-10.13,22.67-22.67V24.27c0-12.53-10.13-22.67-22.67-22.67ZM110.77,83.79c-2.67,6.15-6.31,11.53-10.91,16.13-4.6,4.6-9.98,8.24-16.13,10.91-6.15,2.67-12.75,4-19.79,4s-13.64-1.34-19.79-4c-6.15-2.67-11.53-6.31-16.13-10.91-4.6-4.6-8.22-9.98-10.85-16.13-2.63-6.15-3.95-12.75-3.95-19.79s1.31-13.64,3.95-19.79c2.63-6.15,6.25-11.53,10.85-16.13,4.6-4.6,9.98-8.24,16.13-10.91,6.15-2.67,12.75-4,19.79-4s13.64,1.33,19.79,4c6.15,2.67,11.53,6.31,16.13,10.91,4.6,4.6,8.24,9.98,10.91,16.13,2.67,6.15,4,12.75,4,19.79s-1.33,13.64-4,19.79Z"/>
  <path class="cls-1" d="M95.98,31.97c-4.1-4.1-8.9-7.33-14.39-9.69-5.49-2.36-11.37-3.54-17.64-3.54s-12.15,1.18-17.64,3.54c-5.49,2.36-10.29,5.59-14.39,9.69s-7.33,8.9-9.69,14.39c-2.36,5.49-3.54,11.37-3.54,17.64s1.18,12.15,3.54,17.64c2.36,5.49,5.59,10.29,9.69,14.39,4.1,4.1,8.9,7.33,14.39,9.69,5.49,2.36,11.37,3.54,17.64,3.54s12.15-1.18,17.64-3.54c5.49-2.36,10.29-5.59,14.39-9.69,4.1-4.1,7.33-8.9,9.69-14.39,2.36-5.49,3.54-11.37,3.54-17.64s-1.18-12.15-3.54-17.64c-2.36-5.49-5.59-10.29-9.69-14.39ZM90.06,62.55c-.54,2.2-1.55,4.2-3.02,5.98-1.47,1.78-3.5,3.25-6.09,4.41-2.59,1.16-5.9,1.9-9.92,2.2.62.31,1.41.7,2.38,1.16.97.46,1.8,1.35,2.49,2.67.39.85.64,2.09.75,3.71.12,1.63.17,3.29.17,4.99s-.02,3.27-.06,4.7c-.04,1.43.02,2.3.17,2.61.31.62.75,1.16,1.34,1.62.58.46,1.06.81,1.45,1.04.39.23.5.52.35.87-.15.35-.7.56-1.62.64-.46,0-1.04-.08-1.74-.23-.7-.15-1.35-.43-1.97-.81-.62-.39-1.14-.87-1.57-1.45-.43-.58-.64-1.33-.64-2.26v-9.52c0-1.08-.25-1.86-.75-2.32-.5-.46-1.03-.77-1.57-.93v12.53c0,2.24.27,3.71.81,4.41.23.31.44.64.64.99.19.35.31.64.35.87.04.23-.1.37-.41.41-.31.04-.89-.06-1.74-.29-1.63-.39-2.79-1.28-3.48-2.67-.7-1.39-1.04-2.86-1.04-4.41v-12.3h-2.55v12.3c0,1.55-.33,3.02-.99,4.41-.66,1.39-1.84,2.28-3.54,2.67-.85.23-1.41.33-1.68.29-.27-.04-.41-.17-.41-.41s.12-.52.35-.87c.23-.35.46-.68.7-.99.15-.31.33-.85.52-1.63.19-.77.29-1.7.29-2.79v-12.53c-.54.15-1.04.46-1.51.93-.46.46-.7,1.24-.7,2.32v9.52c0,.93-.21,1.68-.64,2.26-.43.58-.95,1.06-1.57,1.45-.62.39-1.28.66-1.97.81-.7.15-1.28.23-1.74.23-.93-.08-1.47-.29-1.63-.64-.15-.35-.04-.64.35-.87.39-.23.87-.58,1.45-1.05.58-.46,1.03-1.01,1.33-1.62.15-.39.21-1.41.17-3.08-.04-1.66-.06-3.5-.06-5.51-.62.23-1.43.39-2.44.46-1.01.08-2.13,0-3.37-.23-2.09-.39-3.68-1.06-4.76-2.03-1.08-.97-2.13-2.5-3.13-4.58-.54-1.01-1.14-1.84-1.8-2.5-.66-.66-1.24-1.18-1.74-1.57-.5-.39-.89-.72-1.16-.99-.27-.27-.29-.52-.06-.75.46-.54,1.1-.77,1.91-.7.81.08,1.3.19,1.45.35.93.39,1.86,1.2,2.79,2.44.93,1.24,1.9,2.28,2.9,3.13.46.39,1.04.77,1.74,1.16.7.39,1.47.66,2.32.81.85.15,1.78.15,2.79,0,1.01-.15,2.01-.58,3.02-1.28.23-1.01.6-1.8,1.1-2.38.5-.58,1.05-1.04,1.62-1.39.58-.35,1.12-.62,1.63-.81.5-.19.91-.37,1.22-.52-4.26-.31-7.74-1.03-10.45-2.15-2.71-1.12-4.86-2.55-6.44-4.29-1.59-1.74-2.67-3.73-3.25-5.98-.58-2.24-.87-4.6-.87-7.08s.39-4.84,1.16-6.85c.77-2.01,1.86-3.79,3.25-5.34-.62-1.86-.83-3.81-.64-5.86.19-2.05.6-3.89,1.22-5.51,2.94.15,5.4.77,7.37,1.86,1.97,1.08,3.35,1.97,4.12,2.67,3.33-.93,6.77-1.39,10.33-1.39h.81c3.33,0,6.54.39,9.63,1.16.85-.7,2.24-1.55,4.18-2.55,1.93-1.01,4.33-1.59,7.2-1.74.62,1.55,1.03,3.29,1.22,5.22.19,1.93.06,3.79-.41,5.57,1.55,1.55,2.75,3.39,3.6,5.51.85,2.13,1.28,4.55,1.28,7.25,0,2.48-.27,4.82-.81,7.02Z"/>
  <path class="cls-1" d="M79.15,53.32c-.85-.46-1.86-.74-3.02-.81-1.16-.08-2.4-.1-3.71-.06-1.32.04-2.71.12-4.18.23-1.47.12-2.94.17-4.41.17s-2.94-.06-4.41-.17c-1.47-.12-2.86-.19-4.18-.23-1.32-.04-2.55-.02-3.71.06-1.16.08-2.17.35-3.02.81-1.78.93-3.06,2.11-3.83,3.54-.77,1.43-1.16,3.38-1.16,5.86,0,4.72,2.44,7.93,7.31,9.63.85.23,1.78.46,2.79.7.85.15,1.91.31,3.19.46,1.28.15,2.77.23,4.47.23h5.11c1.63,0,3.09-.08,4.41-.23,1.32-.15,2.44-.31,3.37-.46,1.08-.23,2.01-.46,2.78-.7,4.88-1.7,7.31-4.91,7.31-9.63,0-2.48-.41-4.43-1.22-5.86-.81-1.43-2.11-2.61-3.89-3.54ZM55.06,64.7c-.58.77-1.3,1.16-2.15,1.16s-1.55-.39-2.09-1.16c-.54-.77-.81-1.7-.81-2.79s.27-2.01.81-2.79c.54-.77,1.24-1.16,2.09-1.16s1.57.39,2.15,1.16c.58.77.87,1.7.87,2.79s-.29,2.01-.87,2.79ZM77.81,64.7c-.58.77-1.3,1.16-2.15,1.16s-1.55-.39-2.09-1.16c-.54-.77-.81-1.7-.81-2.79s.27-2.01.81-2.79c.54-.77,1.24-1.16,2.09-1.16s1.57.39,2.15,1.16c.58.77.87,1.7.87,2.79s-.29,2.01-.87,2.79Z"/>
</svg>