<?xml version="1.0" encoding="UTF-8"?>
<svg id="Capa_1" xmlns="http://www.w3.org/2000/svg" version="1.1" viewBox="0 0 128 128">
  <!-- Generator: Adobe Illustrator 29.7.1, SVG Export Plug-In . SVG Version: 2.1.1 Build 8)  -->
  <defs>
    <style>
      .st0 {
        fill: #7d5fff;
      }
    </style>
  </defs>
  <path class="st0" d="M105.3,1.6H22.7C10.2,1.6,0,11.8,0,24.3v79.5c0,12.5,10.2,22.7,22.7,22.7h82.7c12.5,0,22.7-10.2,22.7-22.7V24.3c0-12.5-10.2-22.7-22.7-22.7ZM100.2,26.6l-.7,7.4-.3,3.3h-55.8l1.3,14.9h53.2l-.4,3.9-3.4,38.4-.2,2.5-29.9,8.3h0s-29.9-8.3-29.9-8.3l-2-22.9h14.7l1,11.6,16.3,4.4h0s16.3-4.4,16.3-4.4l1.7-18.9H31.4l-3.6-40.2-.3-3.9h73.1l-.3,3.9Z"/>
</svg>