<?xml version="1.0" encoding="UTF-8"?>
<svg id="Capa_1" data-name="Capa 1" xmlns="http://www.w3.org/2000/svg" viewBox="0 0 128 128">
  <defs>
    <style>
      .cls-1 {
        fill: #fff;
      }

      .cls-2 {
        fill: #7d5fff;
      }
    </style>
  </defs>
  <path class="cls-2" d="M22.67,1.6h82.67c12.51,0,22.67,10.16,22.67,22.67v79.47c0,12.51-10.16,22.67-22.67,22.67H22.67c-12.51,0-22.67-10.16-22.67-22.67V24.27C0,11.76,10.16,1.6,22.67,1.6Z"/>
  <polygon class="cls-1" points="64.04 22.67 63.99 22.67 27.44 22.67 27.79 26.59 31.38 66.81 63.99 66.81 64.04 66.81 81.97 66.81 80.27 85.74 63.99 90.13 63.99 90.14 63.98 90.14 47.72 85.75 46.69 74.11 38.79 74.11 32.03 74.11 34.08 97.03 63.98 105.33 64.04 105.31 64.04 105.31 93.92 97.03 94.13 94.56 97.56 56.13 97.92 52.22 93.99 52.22 64.04 52.22 63.99 52.22 44.73 52.22 43.4 37.27 63.99 37.27 64.04 37.27 99.2 37.27 99.25 37.27 99.54 33.99 100.21 26.59 100.56 22.67 64.04 22.67"/>
</svg>