<?xml version="1.0" encoding="UTF-8"?>
<svg id="Capa_1" data-name="Capa 1" xmlns="http://www.w3.org/2000/svg" viewBox="0 0 128 128">
  <defs>
    <style>
      .cls-1 {
        fill: none;
        stroke: #7d5fff;
        stroke-miterlimit: 10;
        stroke-width: 4px;
      }
    </style>
  </defs>
  <line class="cls-1" x1="31.85" y1="117.95" x2="10.05" y2="96.15"/>
  <line class="cls-1" x1="113.69" y1="36.11" x2="91.89" y2="14.31"/>
  <polyline class="cls-1" points="45.08 61.12 6.64 99.56 3.01 124.99 28.44 121.35 66.88 82.92"/>
  <path class="cls-1" d="M82.91,66.89l38.24-38.24c6.02-6.02,6.02-15.78,0-21.8h0c-6.02-6.02-15.78-6.02-21.8,0l-38.24,38.24"/>
  <path class="cls-1" d="M95.74,79.72l-47.46-47.46c2.27-7.92.29-16.81-5.95-23.05C35.08,1.95,24.26.45,15.53,4.69l13.89,13.89-10.85,10.85L4.68,15.54C.44,24.27,1.94,35.09,9.2,42.34c6.24,6.24,15.13,8.22,23.05,5.95l47.46,47.46c-2.27,7.92-.29,16.81,5.95,23.05,7.25,7.25,18.07,8.75,26.8,4.51l-13.89-13.89,10.85-10.85,13.89,13.89c4.24-8.73,2.74-19.55-4.51-26.8-6.24-6.24-15.13-8.23-23.05-5.95Z"/>
  <line class="cls-1" x1="72.01" y1="55.99" x2="102.79" y2="25.21"/>
  <line class="cls-1" x1="20.95" y1="107.05" x2="55.98" y2="72.02"/>
</svg>