<?xml version="1.0" encoding="UTF-8"?>
<svg id="Capa_1" data-name="Capa 1" xmlns="http://www.w3.org/2000/svg" viewBox="0 0 128 128">
  <defs>
    <style>
      .cls-1 {
        fill: none;
        stroke: #7d5fff;
        stroke-miterlimit: 10;
        stroke-width: 4px;
      }
    </style>
  </defs>
  <path class="cls-1" d="M9.27,61.73c-3.89-3.79-6.36-9.03-6.26-14.89,0-10.94,8.38-19.93,19.07-20.88-.29-6.48,4.94-11.94,11.43-11.93,2.26,0,4.36.65,6.14,1.78,3.72-7.59,11.52-12.82,20.55-12.82,7.3,0,13.81,3.42,17.99,8.75,7.53-2.74,15.5-.49,20.96,4.5"/>
  <path class="cls-1" d="M15.94,66.18c4.23,1.8,9.07,2.25,13.79.83.53,6.2,5.29,11.24,11.39,12.11"/>
  <path class="cls-1" d="M103.96,22.66c1.59,3.25,2.33,6.95,1.89,10.84,7.04-.13,12.6,6.44,11.36,13.36,4.77,4.19,7.78,10.33,7.78,17.18,0,12.61-10.22,22.84-22.84,22.84-5.91,0-11.3-2.19-15.35-5.86"/>
  <path class="cls-1" d="M39.64,15.82c2.26,1.44,3.97,3.64,4.78,6.25"/>
  <path class="cls-1" d="M24.77,58.22c-6.16,0-11.16-5-11.16-11.16s5-11.16,11.16-11.16"/>
  <path class="cls-1" d="M53.75,16.66c2.28-1.83,5.19-2.93,8.34-2.93,7.37,0,13.34,5.97,13.34,13.34"/>
  <path class="cls-1" d="M105.94,33.5c-2.93,0-6.9.73-9.53,3.81"/>
  <path class="cls-1" d="M81.16,37.32c7.21-8.74,18.22-1.11,17.16,6.99"/>
  <path class="cls-1" d="M111.98,56.38c4.04,5.23,3.12,11.19-.17,15.26"/>
  <path class="cls-1" d="M52.07,59.75c3.39-2.09,7.36-3.32,11.6-3.38,12.78-.18,23.2,10.13,23.2,22.87,0,7.49-3.6,14.13-9.16,18.31-1.43,1.07-2.28,2.75-2.28,4.54v7.65h-22.88v-7.65c0-1.78-.84-3.46-2.27-4.53-5.55-4.16-9.14-10.78-9.17-18.24-.02-5.36,1.84-10.31,4.95-14.24"/>
  <path class="cls-1" d="M71.76,117.37h-15.51c-2.03,0-3.68-1.65-3.68-3.68v-3.94h22.87v3.94c0,2.03-1.65,3.68-3.68,3.68Z"/>
  <polygon class="cls-1" points="69.17 125 58.83 125 56.38 117.37 71.63 117.37 69.17 125"/>
  <line class="cls-1" x1="52.56" y1="102.09" x2="75.44" y2="102.09"/>
  <line class="cls-1" x1="60.23" y1="102.09" x2="60.23" y2="79.26"/>
  <line class="cls-1" x1="67.81" y1="102.09" x2="67.81" y2="79.25"/>
  <circle class="cls-1" cx="56.38" cy="79.26" r="3.81"/>
  <circle class="cls-1" cx="71.63" cy="79.26" r="3.81"/>
  <line class="cls-1" x1="64" y1="44.95" x2="64" y2="37.32"/>
  <g>
    <line class="cls-1" x1="39.74" y1="54.99" x2="34.35" y2="49.6"/>
    <line class="cls-1" x1="88.26" y1="103.51" x2="93.65" y2="108.9"/>
  </g>
  <g>
    <line class="cls-1" x1="29.69" y1="79.25" x2="22.07" y2="79.25"/>
    <line class="cls-1" x1="98.31" y1="79.25" x2="105.93" y2="79.25"/>
  </g>
  <g>
    <line class="cls-1" x1="39.74" y1="103.51" x2="34.35" y2="108.9"/>
    <line class="cls-1" x1="88.26" y1="54.99" x2="93.65" y2="49.6"/>
  </g>
</svg>