<?xml version="1.0" encoding="UTF-8"?>
<svg id="Capa_1" data-name="Capa 1" xmlns="http://www.w3.org/2000/svg" viewBox="0 0 128 128">
  <defs>
    <style>
      .cls-1 {
        fill: #7d5fff;
      }
    </style>
  </defs>
  <path class="cls-1" d="M56.68,48.73h-.29c-1.31,5.27-2.71,10.66-4.22,15.7l-1.68,5.81h12.16l-1.66-5.81c-1.51-5.04-2.91-10.47-4.31-15.7Z"/>
  <path class="cls-1" d="M105.33,1.6H22.67C10.13,1.6,0,11.73,0,24.27v79.46c0,12.53,10.13,22.67,22.67,22.67h82.67c12.53,0,22.67-10.13,22.67-22.67V24.27c0-12.53-10.13-22.67-22.67-22.67ZM68.24,89.75l-3.69-12.9h-15.97l-3.72,12.9h-8.62l15.52-47.61h9.9l15.52,47.61h-8.94ZM90.74,89.75h-8.39v-35.76h8.39v35.76ZM86.58,47.74c-2.97,0-5.18-1.98-5.18-4.74s2.21-4.75,5.18-4.75,5.18,1.92,5.18,4.75-2.21,4.74-5.18,4.74Z"/>
</svg>