<?xml version="1.0" encoding="UTF-8"?>
<svg id="Capa_1" data-name="Capa 1" xmlns="http://www.w3.org/2000/svg" viewBox="0 0 128 128">
  <defs>
    <style>
      .cls-1 {
        fill: #7d5fff;
      }
    </style>
  </defs>
  <path class="cls-1" d="M65.32,72.48c0,8.98,3.43,13.72,9.38,13.72,3.19,0,5.89-1.41,8.61-4.64v-19.24c-2.83-2.52-5.62-3.43-8.41-3.43-5.25,0-9.59,4.98-9.59,13.59Z"/>
  <path class="cls-1" d="M105.33,1.6H22.67C10.13,1.6,0,11.73,0,24.27v79.46c0,12.53,10.13,22.67,22.67,22.67h82.67c12.53,0,22.67-10.13,22.67-22.67V24.27c0-12.53-10.13-22.67-22.67-22.67ZM44.75,93.19h-9.75v-54.99h9.75v54.99ZM93,93.19h-7.94l-.74-4.47h-.27c-3.06,3.06-7.3,5.48-11.74,5.48-10.29,0-16.95-8-16.95-21.62s8.44-21.7,17.49-21.7c4.68,0,7.64,1.75,10.83,4.54l-.37-6.66v-14.97h9.69v59.4Z"/>
</svg>