<?xml version="1.0" encoding="UTF-8"?>
<svg id="Capa_1" data-name="Capa 1" xmlns="http://www.w3.org/2000/svg" viewBox="0 0 128 128">
  <defs>
    <style>
      .cls-1 {
        fill: #7d5fff;
      }
    </style>
  </defs>
  <path class="cls-1" d="M105.33,1.6H22.67C10.13,1.6,0,11.73,0,24.27v79.46c0,12.53,10.13,22.67,22.67,22.67h82.67c12.53,0,22.67-10.13,22.67-22.67V24.27c0-12.53-10.13-22.67-22.67-22.67ZM57.36,106.72l-37.42-10.1-.05-15.28s15.67,4.41,24.58,6.7l.1-33.13.1-32.45v-1.18h12.69v85.44ZM107.02,36.48l-27.07.1v22.29l25.38-2.84-3.43,41.75-34.38,8.96-.25-15.13,24.88-6.62.35-12.34-24.68,4.23-.55-55.43,40.85-.2-1.09,15.23Z"/>
</svg>