<?xml version="1.0" encoding="UTF-8"?>
<svg id="Layer_1" xmlns="http://www.w3.org/2000/svg" version="1.1" viewBox="0 0 128 128">
  <!-- Generator: Adobe Illustrator 30.3.0, SVG Export Plug-In . SVG Version: 2.1.3 Build 182)  -->
  <defs>
    <style>
      .st0 {
        fill: none;
      }

      .st1 {
        fill: #7d5fff;
      }
    </style>
  </defs>
  <rect class="st0" width="128" height="128"/>
  <path class="st1" d="M105.3,1.6H22.7C10.1,1.6,0,11.7,0,24.3v79.5c0,12.5,10.1,22.7,22.7,22.7h82.7c12.5,0,22.7-10.1,22.7-22.7V24.3c0-12.5-10.1-22.7-22.7-22.7ZM65.9,103.7c-9.8,0-17.8-7.7-17.8-17.2v-6.7h-7.3c-9.8,0-17.8-7.7-17.8-17.2h39.4c1.8,0,3.4,1.4,3.4,3.3v37.9ZM85.4,84.7c-9.8,0-17.8-7.7-17.8-17.2v-6.9h-7.3c-9.8,0-17.8-7.7-17.8-17.2h39.4c1.9,0,3.4,1.5,3.4,3.3v38ZM104.9,65.5c-9.8,0-17.8-7.7-17.8-17.2v-6.7h-7.3c-9.8,0-17.8-7.7-17.8-17.2h39.4c1.9,0,3.4,1.4,3.4,3.3v37.9Z"/>
</svg>