<?xml version="1.0" encoding="UTF-8"?>
<svg id="Capa_1" data-name="Capa 1" xmlns="http://www.w3.org/2000/svg" viewBox="0 0 128 128">
  <defs>
    <style>
      .cls-1 {
        fill: #7d5fff;
      }
    </style>
  </defs>
  <path class="cls-1" d="M105.33,1.6H22.67C10.13,1.6,0,11.73,0,24.27v79.46c0,12.53,10.13,22.67,22.67,22.67h82.67c12.53,0,22.67-10.13,22.67-22.67V24.27c0-12.53-10.13-22.67-22.67-22.67ZM63.27,89.4h-30.11v-50.8h9.01v43.22h21.1v7.58ZM93.28,58.86c-1.34-.37-2.33-.62-3.91-.62-3.05,0-6.71,2.08-9.01,7.89v23.27h-8.95v-38.16h7.33l.68,6.81h.25c2.72-4.97,6.76-7.74,10.84-7.74,1.94,0,3.17.25,4.32.78l-1.55,7.77Z"/>
</svg>