<?xml version="1.0" encoding="UTF-8"?>
<svg id="Layer_1" xmlns="http://www.w3.org/2000/svg" version="1.1" xmlns:xlink="http://www.w3.org/1999/xlink" viewBox="0 0 128 128">
  <!-- Generator: Adobe Illustrator 30.3.0, SVG Export Plug-In . SVG Version: 2.1.3 Build 182)  -->
  <defs>
    <style>
      .st0 {
        fill: none;
      }

      .st1 {
        clip-path: url(#clippath);
      }

      .st2 {
        fill: #7d5fff;
      }
    </style>
    <clipPath id="clippath">
      <rect class="st0" width="128" height="128"/>
    </clipPath>
  </defs>
  <g class="st1">
    <path class="st2" d="M105.3,1.6H22.7C10.1,1.6,0,11.7,0,24.3v79.5c0,12.5,10.1,22.7,22.7,22.7h82.7c12.5,0,22.7-10.1,22.7-22.7V24.3c0-12.5-10.1-22.7-22.7-22.7ZM83.2,106h-11.5l10.2-60.9-21.6,60.9h-11.5l10.2-56-21.6,56h-11.5l10-52.2-10-26.8h11.5l21.6,20.7-10.2-20.7h11.5l21.6,15.8-10.2-15.8h11.5l21.8,12.1-21.8,66.9Z"/>
  </g>
</svg>