<?xml version="1.0" encoding="UTF-8"?>
<svg id="Capa_1" data-name="Capa 1" xmlns="http://www.w3.org/2000/svg" viewBox="0 0 128 128">
  <defs>
    <style>
      .cls-1 {
        fill: #7d5fff;
      }
    </style>
  </defs>
  <path class="cls-1" d="M105.33,1.6H22.67C10.13,1.6,0,11.73,0,24.27v79.46c0,12.53,10.13,22.67,22.67,22.67h82.67c12.53,0,22.67-10.13,22.67-22.67V24.27c0-12.53-10.13-22.67-22.67-22.67ZM105.67,83.95c0,2.59-1.38,5-3.62,6.3l-34.42,19.93c-1.12.52-2.42.78-3.62.78-1.29,0-2.5-.35-3.62-.95l-11.47-6.82c-1.73-.95-.86-1.29-.35-1.47,2.33-.78,2.76-.95,5.18-2.33.26-.17.6-.09.86.09l8.8,5.26c.35.17.78.17,1.04,0l34.42-19.93c.35-.17.52-.52.52-.95v-39.77c0-.43-.17-.78-.52-.95l-34.42-19.84c-.35-.17-.78-.17-1.04,0l-34.42,19.84c-.35.17-.52.6-.52.95v39.77c0,.35.17.78.52.95l9.4,5.43c5.09,2.59,8.28-.43,8.28-3.45v-39.25c0-.52.43-1.04,1.04-1.04h4.4c.52,0,1.04.43,1.04,1.04v39.25c0,6.82-3.71,10.78-10.18,10.78-1.98,0-3.54,0-7.94-2.16l-9.06-5.18c-2.24-1.29-3.62-3.71-3.62-6.3v-39.77c0-2.59,1.38-5,3.62-6.3l34.42-19.93c2.16-1.21,5.09-1.21,7.25,0l34.42,19.93c2.24,1.29,3.62,3.71,3.62,6.3v39.77ZM72.89,66.95c-9.4-.95-15.27-3.02-15.27-10.52,0-6.99,5.87-11.13,15.7-11.13,11.04,0,16.48,3.8,17.17,12.08,0,.26-.09.52-.26.78-.17.17-.43.35-.69.35h-4.49c-.43,0-.86-.35-.95-.78-1.04-4.74-3.71-6.3-10.78-6.3-7.94,0-8.89,2.76-8.89,4.83,0,2.5,1.12,3.28,11.82,4.66,10.61,1.38,15.61,3.36,15.61,10.78-.09,7.59-6.3,11.9-17.25,11.9-15.1,0-18.2-6.9-18.2-12.77,0-.52.43-1.04,1.04-1.04h4.49c.52,0,.95.35.95.86.69,4.57,2.67,6.82,11.82,6.82,7.25,0,10.35-1.64,10.35-5.52,0-2.24-.86-3.88-12.16-5Z"/>
</svg>