<?xml version="1.0" encoding="UTF-8"?>
<svg id="Layer_1" xmlns="http://www.w3.org/2000/svg" version="1.1" xmlns:xlink="http://www.w3.org/1999/xlink" viewBox="0 0 128 128">
  <!-- Generator: Adobe Illustrator 30.3.0, SVG Export Plug-In . SVG Version: 2.1.3 Build 182)  -->
  <defs>
    <style>
      .st0 {
        fill: none;
      }

      .st1 {
        clip-path: url(#clippath);
      }

      .st2 {
        fill: #7d5fff;
      }
    </style>
    <clipPath id="clippath">
      <rect class="st0" width="128" height="128"/>
    </clipPath>
  </defs>
  <g class="st1">
    <g>
      <path class="st2" d="M92.4,43.7l-46.4,2.7c-1.7.1-2.3,1-2.3,2.9v42.6c0,2.3,1.1,3.1,3.7,3l44.4-2.6c2.6-.1,2.9-1.7,2.9-3.6v-42.3c0-1.9-.7-2.9-2.3-2.7ZM86.3,54.3l-2.1.4v31.4c-1.9,1-3.6,1.6-5,1.6-2.3,0-2.9-.7-4.6-2.9l-14-22v21.3l4.4,1s0,2.6-3.6,2.6l-9.8.6c-.3-.6,0-2,1-2.3l2.6-.7v-28.1l-3.6-.3c-.3-1.3.4-3.1,2.4-3.3l10.6-.7,14.5,22.3v-19.7l-3.7-.4c-.3-1.6.9-2.7,2.3-2.9l9.8-.6h0c.3,1.3,0,2.6-1.3,2.7Z"/>
      <path class="st2" d="M48.3,41.3h.5s40.4-2.5,40.4-2.5c.9,0,.1-.9-.1-1l-6.7-4.9c-1.3-1-3-2.1-6.3-1.9l-39.1,2.9c-1.4.1-1.7.9-1.1,1.4l5.6,4.4c2.2,1.8,3.1,1.7,6.9,1.5Z"/>
      <path class="st2" d="M105.3,1.6H22.7C10.1,1.6,0,11.7,0,24.3v79.5c0,12.5,10.1,22.7,22.7,22.7h82.7c12.5,0,22.7-10.1,22.7-22.7V24.3c0-12.5-10.1-22.7-22.7-22.7ZM99.6,92.3c0,3.1-1.1,5-5.1,5.3l-47.2,2.9c-3,.1-4.4-.3-6-2.3l-9.6-12.4c-1.7-2.3-2.4-4-2.4-6v-44.6c0-2.6,1.1-4.7,4.4-5l40.7-3c5-.4,6.3-.1,9.4,2.1l13,9.1.3.2c1.9,1.4,2.5,1.9,2.5,3.5v50.1Z"/>
    </g>
  </g>
</svg>