<?xml version="1.0" encoding="UTF-8"?>
<svg id="Capa_1" data-name="Capa 1" xmlns="http://www.w3.org/2000/svg" viewBox="0 0 128 128">
  <defs>
    <style>
      .cls-1 {
        fill: #7d5fff;
      }
    </style>
  </defs>
  <path class="cls-1" d="M42.67,43.41h-6.89v19.55h7.24c8.37,0,12.35-3.33,12.35-10.22s-4.36-9.33-12.69-9.33Z"/>
  <path class="cls-1" d="M105.33,1.6H22.67C10.13,1.6,0,11.73,0,24.27v79.46c0,12.53,10.13,22.67,22.67,22.67h82.67c12.53,0,22.67-10.13,22.67-22.67V24.27c0-12.53-10.13-22.67-22.67-22.67ZM43.84,70.91h-8.06v20.61h-9.95v-56.07h17.66c12.45,0,21.67,4.32,21.67,17.29s-9.26,18.18-21.33,18.18ZM85.81,92.55c-5.76,0-11.83-2.46-15.95-5.86l4.6-6.28c3.74,2.92,7.36,4.7,11.63,4.7,4.6,0,6.76-2.16,6.76-5.04,0-3.53-4.56-5.11-9.05-6.82-5.52-2.08-11.83-5.25-11.83-12.28s5.9-12.59,15.33-12.59c5.86,0,10.56,2.38,13.99,5.04l-4.53,6.07c-2.95-2.16-5.92-3.67-9.22-3.67-4.24,0-6.24,2.02-6.24,4.66,0,3.33,4.25,4.59,8.81,6.28,5.69,2.13,12.07,4.87,12.07,12.73,0,7.23-5.73,13.06-16.36,13.06Z"/>
</svg>