<?xml version="1.0" encoding="UTF-8"?>
<svg id="Capa_1" data-name="Capa 1" xmlns="http://www.w3.org/2000/svg" viewBox="0 0 128 128">
  <defs>
    <style>
      .cls-1 {
        fill: #7d5fff;
      }
    </style>
  </defs>
  <path class="cls-1" d="M30.51,55.18h-6.29l-3.43,17.63h5.58c3.7,0,6.46-.7,8.27-2.09,1.81-1.39,3.03-3.72,3.67-6.98.61-3.13.33-5.34-.83-6.63-1.16-1.29-3.49-1.93-6.97-1.93Z"/>
  <path class="cls-1" d="M102.15,55.18h-6.29l-3.43,17.63h5.58c3.7,0,6.46-.7,8.27-2.09,1.81-1.39,3.03-3.72,3.67-6.98.61-3.13.33-5.34-.83-6.63-1.16-1.29-3.49-1.93-6.97-1.93Z"/>
  <path class="cls-1" d="M105.33,1.6H22.67C10.13,1.6,0,11.73,0,24.27v79.46c0,12.53,10.13,22.67,22.67,22.67h82.67c12.53,0,22.67-10.13,22.67-22.67V24.27c0-12.53-10.13-22.67-22.67-22.67ZM42.04,74.71c-1.83,1.72-3.87,2.94-6.11,3.66-2.24.73-5.09,1.09-8.56,1.09h-7.86l-2.18,11.2h-9.18l8.19-42.13h17.65c5.31,0,9.18,1.39,11.62,4.18,2.43,2.79,3.17,6.68,2.2,11.67-.4,2.06-1.08,3.94-2.03,5.64-.95,1.7-2.2,3.26-3.74,4.68ZM68.83,79.46l3.62-18.64c.41-2.12.26-3.57-.46-4.34-.72-.77-2.24-1.16-4.57-1.16h-7.28l-4.69,24.14h-9.11l8.19-42.13h9.11l-2.18,11.2h8.11c5.1,0,8.62.89,10.56,2.67,1.94,1.78,2.52,4.67,1.74,8.65l-3.81,19.61h-9.25ZM119.44,64.39c-.4,2.06-1.08,3.94-2.03,5.64-.95,1.7-2.2,3.26-3.74,4.68-1.83,1.72-3.87,2.94-6.11,3.66-2.24.73-5.09,1.09-8.56,1.09h-7.86l-2.18,11.2h-9.18l8.19-42.13h17.65c5.31,0,9.18,1.39,11.62,4.18,2.43,2.79,3.17,6.68,2.2,11.67Z"/>
</svg>