<?xml version="1.0" encoding="UTF-8"?>
<svg id="Capa_1" data-name="Capa 1" xmlns="http://www.w3.org/2000/svg" viewBox="0 0 128 128">
  <defs>
    <style>
      .cls-1 {
        fill: #7d5fff;
      }
    </style>
  </defs>
  <path class="cls-1" d="M44.85,45.36h-6.4v18.15h6.72c7.77,0,11.46-3.09,11.46-9.49s-4.04-8.66-11.78-8.66Z"/>
  <path class="cls-1" d="M105.33,1.6H22.67C10.13,1.6,0,11.73,0,24.27v79.46c0,12.53,10.13,22.67,22.67,22.67h82.67c12.53,0,22.67-10.13,22.67-22.67V24.27c0-12.53-10.13-22.67-22.67-22.67ZM45.94,70.9h-7.48v19.13h-9.23v-52.05h16.4c11.56,0,20.12,4.01,20.12,16.05s-8.6,16.88-19.8,16.88ZM97.19,58.73c-1.37-.38-2.39-.64-4.01-.64-3.12,0-6.88,2.13-9.23,8.09v23.84h-9.17v-39.1h7.51l.7,6.97h.26c2.79-5.09,6.92-7.93,11.11-7.93,1.99,0,3.25.25,4.42.8l-1.59,7.96Z"/>
</svg>