<?xml version="1.0" encoding="UTF-8"?>
<svg id="Capa_1" data-name="Capa 1" xmlns="http://www.w3.org/2000/svg" viewBox="0 0 128 128">
  <defs>
    <style>
      .cls-1 {
        fill: #7d5fff;
      }
    </style>
  </defs>
  <path class="cls-1" d="M52.12,24.36c-2.4,0-4.34,1.94-4.34,4.34s1.94,4.34,4.34,4.34,4.34-1.94,4.34-4.34-1.94-4.34-4.34-4.34Z"/>
  <path class="cls-1" d="M78.35,102.95c.49-.28.91-.69,1.19-1.19,2.4-4.21-1.91-8.52-6.13-6.13-.49.28-.91.69-1.19,1.19-2.4,4.21,1.91,8.52,6.13,6.13Z"/>
  <path class="cls-1" d="M105.33,1.6H22.67C10.13,1.6,0,11.73,0,24.27v79.46c0,12.53,10.13,22.67,22.67,22.67h82.67c12.53,0,22.67-10.13,22.67-22.67V24.27c0-12.53-10.13-22.67-22.67-22.67ZM38.95,86.4h-6.46c-7.45,0-13.5-6.04-13.5-13.5v-17.94c0-7.45,6.04-13.5,13.5-13.5h32.66v-3.26h-22.67v-6.73c0-7.45,6.04-13.5,13.5-13.5h17.53c7.45,0,13.5,6.04,13.5,13.5v20.7c0,6-4.87,10.87-10.87,10.87h-26.32c-6,0-10.87,4.87-10.87,10.87v12.48ZM109,74.17c0,6.83-5.54,12.37-12.37,12.37h-33.79v3.26h22.67v7.86c0,6.83-5.54,12.37-12.37,12.37h-19.79c-6.83,0-12.37-5.54-12.37-12.37v-22.97c0-5.38,4.36-9.74,9.74-9.74h25.95c6.83,0,12.36-5.53,12.36-12.36v-10.99h7.59c6.83,0,12.37,5.54,12.37,12.37v20.2Z"/>
</svg>