<?xml version="1.0" encoding="UTF-8"?>
<svg id="Capa_1" data-name="Capa 1" xmlns="http://www.w3.org/2000/svg" viewBox="0 0 128 128">
  <defs>
    <style>
      .cls-1 {
        fill: #7d5fff;
      }
    </style>
  </defs>
  <path class="cls-1" d="M85.15,69.03c-.94,1.81-1.94,3.63-2.98,5.45-1.04,1.8-2.09,3.54-3.16,5.24,3.39-.41,6.61-.96,9.6-1.64-.92-2.88-2.08-5.92-3.45-9.05Z"/>
  <path class="cls-1" d="M79.02,48.35c1.07,1.67,2.11,3.39,3.13,5.15,1.04,1.8,2.03,3.58,2.96,5.35,1.3-3.05,2.41-6.02,3.29-8.86-2.95-.67-6.1-1.23-9.38-1.64Z"/>
  <path class="cls-1" d="M45.83,53.53c1.02-1.77,2.07-3.5,3.15-5.18-3.26.41-6.39.94-9.33,1.6.89,2.88,1.99,5.87,3.27,8.9.92-1.78,1.89-3.56,2.9-5.32h0Z"/>
  <path class="cls-1" d="M49.08,79.79c-1.11-1.72-2.19-3.48-3.23-5.28h0c-1.02-1.77-2-3.54-2.92-5.32-1.31,3.1-2.43,6.15-3.33,9.08,2.93.64,6.11,1.15,9.48,1.52Z"/>
  <path class="cls-1" d="M89.58,45.76c.17-.69.32-1.38.46-2.05,2.16-10.51.82-18.52-2.62-20.51-3.23-1.87-10.33.74-17.93,7.36-.79.68-1.58,1.41-2.37,2.17,2.94,3.17,5.87,6.83,8.7,10.85,4.85.46,9.49,1.19,13.76,2.17Z"/>
  <path class="cls-1" d="M54.68,80.29c3,.19,6.11.29,9.32.29s6.37-.11,9.42-.33c1.68-2.51,3.33-5.18,4.94-7.96,1.61-2.79,3.08-5.57,4.42-8.33-1.34-2.71-2.82-5.47-4.44-8.26-1.6-2.76-3.26-5.4-4.96-7.92-3.06-.23-6.2-.35-9.39-.35h0c-3.17,0-6.31.12-9.37.35-1.73,2.53-3.4,5.19-4.99,7.94h0c-1.58,2.75-3.05,5.53-4.38,8.29,1.33,2.76,2.8,5.54,4.39,8.29h0c1.6,2.76,3.29,5.43,5.03,7.98ZM64,54.73c5.07,0,9.19,4.11,9.19,9.19s-4.11,9.19-9.19,9.19-9.19-4.11-9.19-9.19,4.11-9.19,9.19-9.19Z"/>
  <path class="cls-1" d="M64,43.04c2.05,0,4.09.05,6.1.14-2-2.66-4.03-5.11-6.05-7.31-2.06,2.22-4.11,4.67-6.11,7.31,2-.09,4.02-.14,6.06-.14Z"/>
  <path class="cls-1" d="M38.41,82.51c-.29,1.17-.54,2.31-.75,3.42-1.84,9.69-.49,16.92,2.75,18.79,1.53.88,4.05.85,7.22-.27,3.53-1.25,7.53-3.72,11.52-7.21.65-.57,1.3-1.17,1.96-1.81-3-3.22-5.99-6.91-8.83-10.91-4.99-.4-9.65-1.07-13.87-2.01Z"/>
  <path class="cls-1" d="M38.47,45.71c4.26-.96,8.89-1.69,13.73-2.13,2.82-3.98,5.78-7.64,8.76-10.85-.52-.49-1.03-.97-1.54-1.42-8.02-7.12-15.63-9.96-19.08-7.97-3.23,1.87-4.52,9.33-2.58,19.21.2,1.03.44,2.09.71,3.17Z"/>
  <path class="cls-1" d="M105.33,1.6H22.67C10.13,1.6,0,11.73,0,24.27v79.46c0,12.53,10.13,22.67,22.67,22.67h82.67c12.53,0,22.67-10.13,22.67-22.67V24.27c0-12.53-10.13-22.67-22.67-22.67ZM95.97,80.6c-.62.21-1.26.41-1.91.6.23.93.44,1.85.62,2.75,2.33,11.76.53,21.43-4.98,24.62-5.34,3.09-13.98.05-22.72-7.47-.92-.79-1.85-1.64-2.78-2.54-.72.69-1.43,1.35-2.15,1.98-9.03,7.89-18.3,11.17-23.82,7.98-5.35-3.08-7.03-12.08-4.88-23.42.23-1.2.5-2.42.81-3.67-.96-.27-1.89-.56-2.78-.87-11.35-3.88-18.81-10.27-18.81-16.65s6.96-12.13,17.85-15.92c1.22-.42,2.49-.82,3.81-1.2-.29-1.16-.54-2.29-.76-3.41-2.26-11.53-.67-20.75,4.69-23.86,5.59-3.24,14.91.24,24.2,8.49.57.5,1.14,1.03,1.7,1.57.85-.82,1.71-1.61,2.56-2.35,8.87-7.72,17.64-10.94,23.01-7.85,5.6,3.23,7.24,13.03,4.73,25.2-.15.74-.32,1.5-.51,2.26,1.14.33,2.24.68,3.31,1.04,11.11,3.83,18.29,9.82,18.29,16.01s-7.67,12.78-19.47,16.69Z"/>
  <path class="cls-1" d="M89.81,82.31c-4.26.99-8.96,1.71-13.93,2.15-2.83,4.09-5.73,7.78-8.62,10.95.87.83,1.73,1.62,2.59,2.36,7.48,6.44,14.41,8.87,17.65,7,1.52-.88,2.76-3.08,3.37-6.39.68-3.68.53-8.38-.49-13.58-.16-.81-.35-1.64-.56-2.49Z"/>
  <path class="cls-1" d="M95.72,52.06c-.98-.34-2.01-.66-3.06-.96-1.27,4.1-2.96,8.42-5.01,12.84,2.15,4.53,3.91,8.91,5.21,13.03.59-.17,1.17-.35,1.73-.54,10.18-3.37,16.46-8.54,16.46-12.52,0-3.73-5.81-8.58-15.33-11.86Z"/>
  <path class="cls-1" d="M35.39,51.03c-1.23.35-2.41.72-3.54,1.11-9.32,3.25-14.9,8.03-14.9,11.77,0,1.76,1.29,3.93,3.84,6.12,2.84,2.43,6.98,4.66,12,6.38.82.28,1.66.54,2.54.8,1.3-4.24,3.01-8.69,5.08-13.18-2.04-4.43-3.73-8.81-5.01-12.99Z"/>
  <path class="cls-1" d="M64,84.97c-2.04,0-4.05-.04-6.02-.12,2.03,2.67,4.11,5.16,6.19,7.41,2.01-2.22,4.04-4.71,6.04-7.43-2.04.09-4.11.14-6.21.14Z"/>
</svg>