<?xml version="1.0" encoding="UTF-8"?>
<svg id="Capa_1" data-name="Capa 1" xmlns="http://www.w3.org/2000/svg" viewBox="0 0 128 128">
  <defs>
    <style>
      .cls-1 {
        fill: #7d5fff;
      }
    </style>
  </defs>
  <path class="cls-1" d="M105.33,1.6H22.67C10.13,1.6,0,11.73,0,24.27v79.46c0,12.53,10.13,22.67,22.67,22.67h82.67c12.53,0,22.67-10.13,22.67-22.67V24.27c0-12.53-10.13-22.67-22.67-22.67ZM64,97.35c-13.84,0-20.18-6.4-25.65-11.93-3.36-3.39-6.39-6.47-10.64-7.52-7.45-1.85-13.96.93-19.54,8.34,3.72-14.82,13.03-22.24,27.91-22.24,13.84,0,20.18,6.41,25.65,11.93,3.37,3.4,6.4,6.47,10.65,7.53,7.44,1.85,13.95-.93,19.54-8.34-3.72,14.82-13.03,22.24-27.92,22.24ZM91.92,64c-13.84,0-20.18-6.41-25.65-11.93-3.37-3.4-6.4-6.47-10.64-7.53-7.45-1.85-13.96.93-19.55,8.34,3.72-14.82,13.03-22.24,27.92-22.24,13.84,0,20.18,6.4,25.65,11.93,3.36,3.39,6.4,6.47,10.64,7.52,7.45,1.85,13.96-.93,19.54-8.34-3.72,14.82-13.03,22.24-27.91,22.24Z"/>
</svg>