<?xml version="1.0" encoding="UTF-8"?>
<svg id="Capa_1" data-name="Capa 1" xmlns="http://www.w3.org/2000/svg" viewBox="0 0 128.1 124.9">
  <defs>
    <style>
      .cls-1 {
        fill: #7d5fff;
      }
    </style>
  </defs>
  <path class="cls-1" d="M107.31,55.54c-1.71,0-3.06.58-4,1.75-.95,1.16-1.38,2.47-1.38,4.04v1.86c0,1.49.47,2.76,1.38,3.82.95,1.06,2.15,1.6,3.67,1.6s2.73-.65,3.67-1.93c.95-1.31,1.42-2.98,1.42-5.09,0-1.86-.44-3.31-1.31-4.4s-2-1.64-3.46-1.64Z"/>
  <path class="cls-1" d="M40.48,56.34c-1.38,0-2.47.47-3.31,1.42-.87.95-1.27,2.15-1.27,3.6v2.07c0,1.24.4,2.26,1.2,3.09.8.84,1.78,1.27,3.02,1.27,1.42,0,2.55-.55,3.38-1.64.8-1.09,1.2-2.62,1.2-4.58,0-1.64-.36-2.95-1.13-3.86-.76-.95-1.78-1.38-3.09-1.38Z"/>
  <path class="cls-1" d="M105.4,0H22.7C10.2,0,0,10.2,0,22.7v79.5c0,12.5,10.2,22.7,22.7,22.7h82.7c12.5,0,22.7-10.2,22.7-22.7V22.7c0-12.5-10.2-22.7-22.7-22.7ZM14.87,69.44h-2.44v-18.48h-5.93v-2.18h14.33v2.18h-5.97v18.48ZM25.27,71.8c-1.2,3.06-2.91,4.58-5.09,4.58-.62,0-1.13-.07-1.53-.18v-2.11c.51.18.98.25,1.38.25,1.2,0,2.07-.73,2.69-2.15l1.16-2.8-5.75-14.73h2.62l4,11.35c.04.15.15.51.29,1.13h.07c.04-.22.15-.58.29-1.09l4.18-11.39h2.47l-6.8,17.14ZM45.25,67.51c-1.2,1.49-2.84,2.22-4.91,2.22-1.86.07-3.35-.76-4.4-2.44h-.07v8.91h-2.36v-21.54h2.36v2.58h.07c1.16-1.96,2.87-2.95,5.09-2.95,1.89,0,3.38.65,4.44,1.96s1.6,3.09,1.6,5.31c0,2.47-.62,4.44-1.82,5.93ZM61.54,62.64h-10.4c.04,1.64.47,2.91,1.31,3.82.84.91,2,1.35,3.49,1.35,1.67,0,3.2-.55,4.58-1.64v2.22c-1.31.95-3.02,1.42-5.13,1.42s-3.71-.65-4.91-2c-1.2-1.35-1.78-3.24-1.78-5.64s.65-4.18,1.96-5.6c1.31-1.46,2.91-2.18,4.84-2.18s3.42.62,4.47,1.89c1.06,1.24,1.6,2.98,1.6,5.2l-.04,1.16ZM71.95,68.24c-1.09,1.02-2.66,1.49-4.66,1.49-.73,0-1.53-.11-2.47-.33-.95-.22-1.64-.4-2.11-.69v-1.64c1.49.95,2.98,1.42,4.51,1.42s2.84-.33,3.67-1.02c.84-.69,1.24-1.6,1.24-2.8,0-1.06-.29-1.89-.84-2.55-.55-.62-1.78-1.49-3.64-2.58-2.11-1.24-3.42-2.26-3.97-3.06-.55-.84-.84-1.78-.84-2.84,0-1.46.58-2.69,1.71-3.71s2.66-1.53,4.55-1.53c1.24,0,2.47.22,3.67.62v1.49c-1.2-.55-2.51-.84-3.89-.84s-2.51.36-3.35,1.06c-.84.73-1.24,1.6-1.24,2.69s.29,1.89.84,2.51c.55.62,1.78,1.49,3.64,2.55,1.93,1.09,3.2,2.07,3.86,2.91.65.84.95,1.82.95,2.95,0,1.6-.55,2.87-1.64,3.89ZM85.92,56.49c-1.06-.65-2.22-.98-3.46-.98-1.75,0-3.13.62-4.22,1.86s-1.6,2.87-1.6,4.84.51,3.46,1.49,4.62,2.29,1.75,3.89,1.75c1.49,0,2.76-.4,3.86-1.16v1.38c-1.09.65-2.4,1.02-3.93,1.02-2,0-3.64-.69-4.88-2.07-1.24-1.38-1.86-3.17-1.86-5.42s.69-4.26,2.07-5.75c1.38-1.49,3.17-2.26,5.35-2.26,1.13,0,2.22.22,3.27.69v1.49ZM94.72,56.05h-.04c-.44-.33-.95-.47-1.56-.47-1.16,0-2.15.62-2.91,1.82-.8,1.2-1.16,2.91-1.16,5.13v6.95h-1.31v-14.81h1.31v3.27h.07c.33-1.13.87-2,1.6-2.62.73-.62,1.56-.95,2.55-.95.55,0,1.06.07,1.46.25v1.42ZM97.45,69.44h-1.31v-14.77h1.31v14.77ZM97.6,50.63c-.25.22-.51.33-.8.33s-.55-.11-.76-.33c-.22-.22-.33-.47-.33-.8s.11-.58.33-.76c.22-.18.47-.29.76-.29s.55.11.8.29c.22.18.33.44.33.76,0,.29-.11.58-.33.8ZM111.64,67.55c-1.2,1.53-2.8,2.29-4.77,2.29-2.18-.04-3.82-1.02-4.88-3.02h-.07v9.42h-1.31v-21.57h1.31v3.06h.07c.55-1.09,1.27-1.93,2.26-2.51.98-.58,2.07-.87,3.24-.87,1.89,0,3.35.65,4.4,1.93,1.06,1.31,1.56,3.06,1.56,5.28,0,2.47-.62,4.47-1.82,6ZM121.5,55.91h-3.89v9.75c0,1.02.15,1.75.47,2.22s.87.69,1.64.69c.55,0,1.13-.18,1.78-.55v1.2c-.69.33-1.35.47-1.93.47-2.18,0-3.27-1.31-3.27-3.93v-9.86h-2.66v-1.2h2.66v-3.86l.65-.22.65-.22v4.29h3.89v1.2Z"/>
  <path class="cls-1" d="M55.43,56.31c-1.13,0-2.07.4-2.84,1.2-.76.8-1.27,1.86-1.46,3.13h7.97c0-1.38-.33-2.44-.98-3.2-.65-.76-1.56-1.13-2.69-1.13Z"/>
</svg>