<?xml version="1.0" encoding="UTF-8"?>
<svg id="Capa_1" data-name="Capa 1" xmlns="http://www.w3.org/2000/svg" viewBox="0 0 128.1 124.9">
  <defs>
    <style>
      .cls-1 {
        fill: #7d5fff;
      }
    </style>
  </defs>
  <path class="cls-1" d="M105.4,0H22.7C10.2,0,0,10.2,0,22.7v79.5c0,12.5,10.2,22.7,22.7,22.7h82.7c12.5,0,22.7-10.2,22.7-22.7V22.7c0-12.5-10.2-22.7-22.7-22.7ZM64.94,43.56h-17.36v49.63h-13.83v-49.63h-17.36v-11.12h48.54v11.12ZM109.68,84.27c-1.09,2.44-2.96,4.26-5.15,5.69-2.17,1.33-4.61,2.36-7.59,2.98-2.98.62-5.97.92-9.22.92s-6.51-.27-9.49-.84c-2.98-.57-5.67-1.41-7.86-2.55v-13.05c-.17-.13-.35-.25-.52-.39l.52-.12v.51c2.31,1.83,4.84,3.26,7.62,4.22,2.71,1.03,5.7,1.55,8.68,1.55,1.9,0,3.34-.16,4.61-.46,1.33-.33,2.39-.76,3.25-1.3.87-.54,1.51-1.19,1.93-1.95.41-.76.62-1.57.62-2.44,0-1.25-.35-2.33-1.03-3.25-.62-.92-1.55-1.79-2.71-2.58-1.08-.79-2.44-1.55-4.07-2.28-1.63-.73-3.28-1.49-5.15-2.25-4.61-2.17-8.24-4.34-10.58-7.32-2.36-2.71-3.53-6.24-3.53-10.3,0-3.25.62-5.86,1.9-8.14,1.36-2.44,2.96-4.23,5.15-5.69,2.17-1.49,4.61-2.58,7.59-3.25,2.98-.68,5.97-1.03,9.22-1.03s5.97.19,8.41.57c2.44.38,4.72.98,6.78,1.76v12.75c-.95-.71-2.06-1.33-3.25-1.87-1.27-.54-2.52-.98-3.8-1.33-1.27-.35-2.55-.62-3.8-.79-1.19-.17-2.39-.26-3.53-.26-1.65,0-3.06.14-4.34.43-1.3.3-2.39.7-3.25,1.25-.87.54-1.54,1.17-2.03,1.93-.49.76-.73,1.6-.73,2.52,0,1,.27,1.9.81,2.71.54.79,1.3,1.55,2.31,2.28.89.71,2.12,1.41,3.53,2.12,1.63.71,3.09,1.41,4.88,2.14,2.44,1.03,4.61,2.17,6.51,3.25,1.9,1.08,3.5,2.36,4.88,3.8,1.46,1.36,2.52,2.98,3.25,4.88.73,1.9,1.11,4.04,1.11,6.51,0,3.53-.84,6.24-1.93,8.68Z"/>
</svg>