<?xml version="1.0" encoding="UTF-8"?>
<svg id="Capa_1" data-name="Capa 1" xmlns="http://www.w3.org/2000/svg" viewBox="0 0 128 128">
  <defs>
    <style>
      .cls-1 {
        fill: #7d5fff;
      }
    </style>
  </defs>
  <polygon class="cls-1" points="83.96 79.27 83.96 48.73 64.22 64.02 83.96 79.27"/>
  <polygon class="cls-1" points="31.57 73.78 41.95 64.34 31.57 54 31.57 73.78"/>
  <path class="cls-1" d="M105.34,1.6H22.67C10.13,1.6,0,11.73,0,24.27v79.46c0,12.53,10.13,22.67,22.67,22.67h82.67c12.53,0,22.67-10.13,22.67-22.67V24.27c0-12.53-10.13-22.67-22.67-22.67ZM106.3,97.71l-21.58,8.78-32.9-32.97-20.97,16.34-9.15-4.56v-42.59l9.11-4.59,20.82,16.38,32.97-33.01,21.69,8.64v67.57Z"/>
</svg>