<?xml version="1.0" encoding="UTF-8"?>
<svg id="Capa_1" data-name="Capa 1" xmlns="http://www.w3.org/2000/svg" viewBox="0 0 128 128">
  <defs>
    <style>
      .cls-1 {
        fill: #7d5fff;
      }
    </style>
  </defs>
  <path class="cls-1" d="M64,20.96c-23.73,0-43.04,19.31-43.04,43.04s19.31,43.05,43.04,43.05,43.04-19.31,43.04-43.05-19.31-43.04-43.04-43.04ZM25.3,64c0-5.61,1.2-10.94,3.35-15.75l18.46,50.58c-12.91-6.27-21.81-19.51-21.81-34.83ZM64,102.7c-3.8,0-7.47-.56-10.93-1.58l11.61-33.74,11.9,32.59c.08.19.17.37.28.53-4.02,1.41-8.34,2.19-12.85,2.19ZM69.33,45.85c2.33-.12,4.43-.37,4.43-.37,2.08-.25,1.84-3.31-.25-3.19,0,0-6.27.49-10.31.49-3.8,0-10.19-.49-10.19-.49-2.09-.12-2.33,3.07-.24,3.19,0,0,1.97.25,4.06.37l6.03,16.52-8.47,25.4-14.09-41.92c2.33-.12,4.43-.37,4.43-.37,2.08-.25,1.84-3.31-.25-3.19,0,0-6.27.49-10.31.49-.73,0-1.58-.02-2.49-.05,6.92-10.51,18.81-17.44,32.33-17.44,10.08,0,19.25,3.85,26.13,10.16-.17,0-.33-.03-.5-.03-3.8,0-6.5,3.31-6.5,6.87,0,3.19,1.84,5.89,3.8,9.08,1.47,2.58,3.19,5.89,3.19,10.67,0,3.31-1.27,7.16-2.95,12.51l-3.86,12.9-13.99-41.6ZM97.96,45.43c3.02,5.51,4.74,11.84,4.74,18.57,0,14.28-7.74,26.74-19.24,33.45l11.82-34.18c2.21-5.52,2.94-9.93,2.94-13.86,0-1.42-.09-2.75-.26-3.98Z"/>
  <path class="cls-1" d="M105.33,1.6H22.67C10.13,1.6,0,11.73,0,24.27v79.46c0,12.53,10.13,22.67,22.67,22.67h82.67c12.53,0,22.67-10.13,22.67-22.67V24.27c0-12.53-10.13-22.67-22.67-22.67ZM64,109.11c-24.88,0-45.11-20.24-45.11-45.11S39.12,18.89,64,18.89s45.11,20.24,45.11,45.11c0,24.88-20.24,45.11-45.11,45.11Z"/>
</svg>