<?xml version="1.0" encoding="UTF-8"?>
<svg id="Capa_1" data-name="Capa 1" xmlns="http://www.w3.org/2000/svg" viewBox="0 0 128 128">
  <defs>
    <style>
      .cls-1 {
        fill: #7d5fff;
      }
    </style>
  </defs>
  <path class="cls-1" d="M77.61,71.88c0,8.35,3.19,12.75,8.72,12.75,2.97,0,5.47-1.31,8-4.31v-17.88c-2.63-2.34-5.22-3.19-7.81-3.19-4.88,0-8.91,4.62-8.91,12.63Z"/>
  <path class="cls-1" d="M105.34,1.6H22.67C10.13,1.6,0,11.73,0,24.27v79.46c0,12.53,10.13,22.67,22.67,22.67h82.67c12.53,0,22.67-10.13,22.67-22.67V24.27c0-12.53-10.13-22.67-22.67-22.67ZM54.79,91.13l-6.25-12.06c-1.31-2.6-2.59-5.19-4.09-8.31h-.31c-1.34,3.12-2.56,5.72-3.78,8.31l-6.06,12.06h-9.63l14.5-26.34-13.59-24.75h10.06l5.69,11.34c1.22,2.35,2.31,4.72,3.84,7.81h.31c1.28-3.09,2.31-5.46,3.44-7.81l5.41-11.34h9.62l-13.59,25.19,14.5,25.9h-10.06ZM103.33,91.13h-7.38l-.69-4.15h-.25c-2.84,2.84-6.78,5.09-10.91,5.09-9.56,0-15.75-7.44-15.75-20.09s7.84-20.16,16.25-20.16c4.34,0,7.09,1.63,10.06,4.22l-.34-6.18v-13.91h9v55.19Z"/>
</svg>