<?xml version="1.0" encoding="UTF-8"?>
<svg id="Capa_1" data-name="Capa 1" xmlns="http://www.w3.org/2000/svg" viewBox="0 0 35.82 13.72">
  <defs>
    <style>
      .cls-1 {
        fill: #7d5fff;
      }
    </style>
  </defs>
  <path class="cls-1" d="M35.72,6.58L27.45.25c-.34-.14-.37.17-.37.17v2.24c0,.09.02.4.26.56l4.24,3.31s.31.24,0,.48l-4.12,3.22c-.24.22-.35.52-.36.8v2.25s-.04.25.27.11l.12-.07,8.24-6.33c.25-.19,0-.4,0-.4Z"/>
  <path class="cls-1" d="M24.8,13.29c-.27-.46-.58-.95-.91-1.47-.4-.62-.81-1.2-1.22-1.73-.3-.38-.57-.69-.83-.91h0s-.28-.24.03-.37c0,0,0,0,0,0,.73-.24,1.34-.71,1.81-1.41.53-.79.8-1.75.8-2.87,0-1.49-.37-2.61-1.12-3.38-.74-.77-1.93-1.15-3.55-1.15h-5.68c-.51.02-.51.38-.51.39v5.75c0,.24-.18.29-.28.29h-3.24c-.19,0-.24.1-.25.17v2.4c0,.08.04.22.25.22h3.3s.23.04.23.28v4s.02.08.1.09h3.02s.16-.03.16-.19v-3.93c.02-.09.11-.25.43-.24.34,0,.59.01.75.04.16.03.29.11.41.24.12.13.27.34.46.64l2.06,3.19h0s0,.01,0,.01c.03.05.19.25.51.23h3.03c.12,0,.35-.05.25-.3ZM20.7,6.01c-.27.29-.74.43-1.42.43h-1.94c-.42,0-.44-.5-.44-.5v-3.15h2.38c.68,0,1.16.14,1.42.43.27.29.4.75.4,1.4s-.13,1.11-.4,1.4Z"/>
  <path class="cls-1" d="M12.04,0h-3.12c-.18,0-.25.09-.25.09L.01,13.54H.01s-.07.18.17.18h3.51c.11-.01.26-.07.38-.27h0S12.12.13,12.12.13c.04-.1-.08-.13-.08-.13Z"/>
</svg>